<?xml version="1.0" standalone="no"?>
<!DOCTYPE svg PUBLIC "-//W3C//DTD SVG 20010904//EN"
 "http://www.w3.org/TR/2001/REC-SVG-20010904/DTD/svg10.dtd">
<svg version="1.0" xmlns="http://www.w3.org/2000/svg"
 width="16.000000pt" height="16.000000pt" viewBox="0 0 16.000000 16.000000"
 preserveAspectRatio="xMidYMid meet">
<metadata>
Created by potrace 1.11, written by Peter Selinger 2001-2013
</metadata>
<g transform="translate(0.000000,16.000000) scale(0.001600,-0.001600)"
fill="#000000" stroke="none">
<path d="M4540 9850 c0 -19 -7 -20 -165 -20 -158 0 -165 -1 -165 -20 0 -19 -7
-20 -125 -20 -118 0 -125 -1 -125 -20 0 -18 -7 -20 -85 -20 -78 0 -85 -2 -85
-20 0 -18 -7 -20 -80 -20 -73 0 -80 -2 -80 -20 0 -18 -7 -20 -65 -20 -63 0
-65 -1 -65 -25 0 -24 -3 -25 -60 -25 -53 0 -60 -2 -60 -20 0 -18 -7 -20 -65
-20 -58 0 -65 -2 -65 -20 0 -18 -7 -20 -60 -20 -53 0 -60 -2 -60 -20 0 -17 -7
-20 -45 -20 -38 0 -45 -3 -45 -20 0 -18 -7 -20 -60 -20 -53 0 -60 -2 -60 -20
0 -17 -7 -20 -45 -20 -41 0 -45 -2 -45 -25 0 -22 -4 -25 -40 -25 -33 0 -40 -3
-40 -20 0 -17 -7 -20 -40 -20 -33 0 -40 -3 -40 -20 0 -17 -7 -20 -45 -20 -38
0 -45 -3 -45 -20 0 -13 -7 -20 -20 -20 -13 0 -20 -7 -20 -20 0 -17 -7 -20 -40
-20 -33 0 -40 -3 -40 -20 0 -17 -7 -20 -40 -20 -36 0 -40 -2 -40 -25 0 -20 -5
-25 -25 -25 -18 0 -25 -5 -25 -20 0 -17 -7 -20 -40 -20 -33 0 -40 -3 -40 -20
0 -13 -7 -20 -20 -20 -13 0 -20 -7 -20 -20 0 -17 -7 -20 -40 -20 -33 0 -40 -3
-40 -20 0 -15 -7 -20 -25 -20 -18 0 -25 -5 -25 -20 0 -13 -7 -20 -20 -20 -15
0 -20 -7 -20 -25 0 -22 -4 -25 -40 -25 -33 0 -40 -3 -40 -20 0 -13 -7 -20 -20
-20 -13 0 -20 -7 -20 -20 0 -13 -7 -20 -20 -20 -13 0 -20 -7 -20 -20 0 -15 -7
-20 -25 -20 -18 0 -25 -5 -25 -20 0 -17 -7 -20 -40 -20 -33 0 -40 -3 -40 -20
0 -13 -7 -20 -20 -20 -15 0 -20 -7 -20 -25 0 -18 -5 -25 -20 -25 -13 0 -20 -7
-20 -20 0 -13 -7 -20 -20 -20 -13 0 -20 -7 -20 -20 0 -15 -7 -20 -25 -20 -18
0 -25 -5 -25 -20 0 -13 -7 -20 -20 -20 -13 0 -20 -7 -20 -20 0 -13 -7 -20 -20
-20 -13 0 -20 -7 -20 -20 0 -13 -7 -20 -20 -20 -15 0 -20 -7 -20 -25 0 -18 -5
-25 -20 -25 -13 0 -20 -7 -20 -20 0 -13 -7 -20 -20 -20 -13 0 -20 -7 -20 -20
0 -15 -7 -20 -25 -20 -18 0 -25 -5 -25 -20 0 -13 -7 -20 -20 -20 -13 0 -20 -7
-20 -20 0 -13 -7 -20 -20 -20 -17 0 -20 -7 -20 -45 0 -38 -3 -45 -20 -45 -13
0 -20 -7 -20 -20 0 -13 -7 -20 -20 -20 -13 0 -20 -7 -20 -20 0 -13 -7 -20 -20
-20 -13 0 -20 -7 -20 -20 0 -15 -7 -20 -25 -20 -22 0 -25 -4 -25 -40 0 -33 -3
-40 -20 -40 -15 0 -20 -7 -20 -25 0 -18 -5 -25 -20 -25 -13 0 -20 -7 -20 -20
0 -13 -7 -20 -20 -20 -17 0 -20 -7 -20 -40 0 -33 -3 -40 -20 -40 -13 0 -20 -7
-20 -20 0 -13 -7 -20 -20 -20 -17 0 -20 -7 -20 -45 0 -41 -2 -45 -25 -45 -18
0 -25 -5 -25 -20 0 -13 -7 -20 -20 -20 -17 0 -20 -7 -20 -40 0 -33 -3 -40 -20
-40 -17 0 -20 -7 -20 -40 0 -33 -3 -40 -20 -40 -15 0 -20 -7 -20 -25 0 -18 -5
-25 -20 -25 -17 0 -20 -7 -20 -40 0 -33 -3 -40 -20 -40 -17 0 -20 -7 -20 -40
0 -36 -2 -40 -25 -40 -23 0 -25 -4 -25 -45 0 -38 -3 -45 -20 -45 -17 0 -20 -7
-20 -40 0 -33 -3 -40 -20 -40 -18 0 -20 -7 -20 -60 0 -53 -2 -60 -20 -60 -17
0 -20 -7 -20 -45 0 -38 -3 -45 -20 -45 -18 0 -20 -7 -20 -60 0 -53 -2 -60 -20
-60 -18 0 -20 -7 -20 -65 0 -63 -1 -65 -25 -65 -24 0 -25 -3 -25 -60 0 -53 -2
-60 -20 -60 -18 0 -20 -7 -20 -65 0 -58 -2 -65 -20 -65 -13 0 -20 -7 -20 -20
0 -20 7 -20 540 -20 l540 0 0 -60 0 -60 -560 0 -560 0 0 -85 c0 -78 -2 -85
-20 -85 -19 0 -20 -7 -20 -125 0 -118 -1 -125 -20 -125 -13 0 -20 -7 -20 -20
0 -19 7 -20 250 -20 243 0 250 -1 250 -20 0 -18 -7 -20 -85 -20 l-85 0 0 -65
0 -65 -165 0 -165 0 0 -60 c0 -57 -1 -60 -25 -60 l-25 0 0 -190 0 -190 710 0
710 0 0 -105 0 -105 -710 0 -710 0 0 -125 0 -125 25 0 25 0 0 -125 0 -125 770
0 770 0 0 -125 0 -125 -750 0 -750 0 0 -40 c0 -33 3 -40 20 -40 18 0 20 -7 20
-85 0 -78 2 -85 20 -85 18 0 20 -7 20 -80 0 -73 2 -80 20 -80 15 0 20 -7 20
-25 l0 -25 1190 0 1190 0 0 -145 0 -145 -1145 0 c-1138 0 -1145 0 -1145 -20 0
-13 7 -20 20 -20 18 0 20 -7 20 -60 0 -53 2 -60 20 -60 17 0 20 -7 20 -45 0
-38 3 -45 20 -45 18 0 20 -7 20 -60 0 -53 2 -60 20 -60 17 0 20 -7 20 -45 0
-38 3 -45 20 -45 13 0 20 -7 20 -20 0 -20 7 -20 4375 -20 4368 0 4375 0 4375
20 0 15 7 20 25 20 23 0 25 4 25 45 0 38 3 45 20 45 18 0 20 7 20 60 0 53 2
60 20 60 17 0 20 7 20 45 0 38 3 45 20 45 18 0 20 7 20 60 0 53 2 60 20 60 13
0 20 7 20 20 0 20 -7 20 -915 20 -908 0 -915 0 -915 20 0 19 7 20 250 20 l250
0 0 125 0 125 710 0 710 0 0 25 c0 18 5 25 20 25 18 0 20 7 20 80 0 73 2 80
20 80 18 0 20 7 20 85 0 78 2 85 20 85 17 0 20 7 20 40 l0 40 -770 0 -770 0 0
125 0 125 790 0 790 0 0 125 c0 118 1 125 20 125 19 0 20 7 20 125 l0 125
-810 0 -810 0 0 105 0 105 810 0 810 0 0 190 c0 183 -1 190 -20 190 -18 0 -20
7 -20 60 l0 60 -355 0 -355 0 0 85 0 85 355 0 c348 0 355 0 355 20 0 13 -7 20
-20 20 -19 0 -20 7 -20 125 0 118 -1 125 -20 125 -18 0 -20 7 -20 85 l0 85
-315 0 c-308 0 -315 0 -315 20 0 18 7 20 85 20 l85 0 0 40 0 40 210 0 c203 0
210 1 210 20 0 13 -7 20 -20 20 -18 0 -20 7 -20 65 0 63 -1 65 -25 65 -24 0
-25 3 -25 60 0 53 -2 60 -20 60 -18 0 -20 7 -20 65 0 58 -2 65 -20 65 -18 0
-20 7 -20 60 0 53 -2 60 -20 60 -17 0 -20 7 -20 45 0 38 -3 45 -20 45 -18 0
-20 7 -20 60 0 53 -2 60 -20 60 -17 0 -20 7 -20 40 0 36 -2 40 -25 40 -23 0
-25 4 -25 45 0 38 -3 45 -20 45 -17 0 -20 7 -20 40 0 33 -3 40 -20 40 -17 0
-20 7 -20 40 0 33 -3 40 -20 40 -15 0 -20 7 -20 25 0 18 -5 25 -20 25 -17 0
-20 7 -20 40 0 33 -3 40 -20 40 -17 0 -20 7 -20 40 0 36 -2 40 -25 40 -18 0
-25 5 -25 20 0 13 -7 20 -20 20 -17 0 -20 7 -20 45 0 38 -3 45 -20 45 -13 0
-20 7 -20 20 0 13 -7 20 -20 20 -17 0 -20 7 -20 40 0 33 -3 40 -20 40 -13 0
-20 7 -20 20 0 13 -7 20 -20 20 -15 0 -20 7 -20 25 0 20 -5 25 -25 25 -22 0
-25 4 -25 40 0 33 -3 40 -20 40 -13 0 -20 7 -20 20 0 13 -7 20 -20 20 -13 0
-20 7 -20 20 0 13 -7 20 -20 20 -13 0 -20 7 -20 20 0 13 -7 20 -20 20 -17 0
-20 7 -20 45 0 38 -3 45 -20 45 -13 0 -20 7 -20 20 0 15 -7 20 -25 20 -18 0
-25 5 -25 20 0 13 -7 20 -20 20 -13 0 -20 7 -20 20 0 13 -7 20 -20 20 -13 0
-20 7 -20 20 0 13 -7 20 -20 20 -15 0 -20 7 -20 25 0 18 -5 25 -20 25 -13 0
-20 7 -20 20 0 13 -7 20 -20 20 -13 0 -20 7 -20 20 0 15 -7 20 -25 20 -18 0
-25 5 -25 20 0 13 -7 20 -20 20 -13 0 -20 7 -20 20 0 13 -7 20 -20 20 -13 0
-20 7 -20 20 0 13 -7 20 -20 20 -15 0 -20 7 -20 25 0 18 -5 25 -20 25 -13 0
-20 7 -20 20 0 17 -7 20 -45 20 -38 0 -45 3 -45 20 0 13 -7 20 -20 20 -13 0
-20 7 -20 20 0 13 -7 20 -20 20 -13 0 -20 7 -20 20 0 13 -7 20 -20 20 -13 0
-20 7 -20 20 0 17 -7 20 -40 20 -36 0 -40 3 -40 25 0 20 -5 25 -25 25 -18 0
-25 5 -25 20 0 13 -7 20 -20 20 -13 0 -20 7 -20 20 0 17 -7 20 -40 20 -33 0
-40 3 -40 20 0 13 -7 20 -20 20 -13 0 -20 7 -20 20 0 17 -7 20 -45 20 -38 0
-45 3 -45 20 0 13 -7 20 -20 20 -15 0 -20 7 -20 25 0 23 -4 25 -40 25 -33 0
-40 3 -40 20 0 17 -7 20 -40 20 -33 0 -40 3 -40 20 0 15 -7 20 -25 20 -18 0
-25 5 -25 20 0 17 -7 20 -40 20 -33 0 -40 3 -40 20 0 17 -7 20 -40 20 -33 0
-40 3 -40 20 0 17 -7 20 -45 20 -41 0 -45 2 -45 25 0 23 -4 25 -40 25 -33 0
-40 3 -40 20 0 18 -7 20 -60 20 -53 0 -60 2 -60 20 0 17 -7 20 -45 20 -38 0
-45 3 -45 20 0 18 -7 20 -60 20 -53 0 -60 2 -60 20 0 18 -7 20 -65 20 -58 0
-65 2 -65 20 0 18 -7 20 -60 20 -57 0 -60 1 -60 25 0 24 -2 25 -65 25 -58 0
-65 2 -65 20 0 18 -7 20 -80 20 -73 0 -80 2 -80 20 0 18 -7 20 -85 20 -78 0
-85 2 -85 20 0 19 -7 20 -125 20 -118 0 -125 1 -125 20 0 19 -7 20 -165 20
-158 0 -165 1 -165 20 0 20 -7 20 -420 20 -413 0 -420 0 -420 -20z m939 -820
c40 -20 91 -70 73 -70 -7 0 -12 -10 -12 -22 l0 -23 -20 25 c-11 14 -20 32 -20
41 0 12 -13 18 -46 23 -91 12 -157 6 -219 -19 -67 -28 -105 -32 -105 -12 0 16
105 63 170 76 59 13 134 5 179 -19z m-1755 -26 c20 -20 21 -44 1 -44 -8 0 -15
9 -15 20 0 16 -7 20 -37 20 -28 0 -34 3 -23 10 23 15 57 12 74 -6z m980 0 c22
-22 20 -44 -4 -44 -11 0 -20 7 -20 15 0 19 -9 19 -31 -1 -10 -9 -30 -14 -46
-12 l-28 3 27 28 c31 31 77 36 102 11z m1840 0 c9 -8 16 -22 16 -30 0 -21 -33
-17 -50 6 -22 30 -50 26 -50 -8 0 -27 -15 -52 -32 -52 -21 0 -5 50 23 74 35
29 70 33 93 10z m-2914 -29 c0 -8 -7 -15 -16 -15 -14 0 -14 3 -4 15 7 8 14 15
16 15 2 0 4 -7 4 -15z m1349 -12 c-10 -2 -19 -13 -22 -24 -7 -25 -37 -25 -37
0 0 22 14 30 50 29 14 0 18 -2 9 -5z m348 -39 c-3 -3 -12 -4 -19 -1 -8 3 -5 6
6 6 11 1 17 -2 13 -5z m-2697 -2134 l0 -80 80 0 80 0 0 -85 0 -85 105 0 105 0
0 85 0 85 85 0 85 0 0 80 0 80 165 0 165 0 0 -80 0 -80 85 0 85 0 0 -85 0 -85
165 0 165 0 0 85 0 85 105 0 105 0 0 80 0 80 145 0 145 0 0 -80 0 -80 85 0 85
0 0 -85 0 -85 105 0 105 0 0 85 0 85 165 0 165 0 0 80 0 80 335 0 335 0 0 -80
0 -80 80 0 80 0 0 -85 0 -85 85 0 85 0 0 -125 0 -125 605 0 605 0 0 -40 0 -40
-85 0 c-78 0 -85 -2 -85 -20 0 -20 -7 -20 -520 -20 l-520 0 0 -230 0 -230
1270 0 1270 0 0 -85 0 -85 -1355 0 -1355 0 0 -250 0 -250 520 0 520 0 0 -105
0 -105 -455 0 -455 0 0 -250 0 -250 455 0 455 0 0 -125 0 -125 -455 0 c-448 0
-455 0 -455 -20 0 -18 -7 -20 -65 -20 l-65 0 0 -85 0 -85 -80 0 -80 0 0 315 0
315 -85 0 -85 0 0 -335 0 -335 -165 0 -165 0 0 85 0 85 -170 0 -170 0 0 85 0
85 -80 0 -80 0 0 -65 0 -65 -85 0 -85 0 0 -85 0 -85 -105 0 c-98 0 -105 -1
-105 -20 0 -18 -7 -20 -85 -20 l-85 0 0 85 0 85 -80 0 -80 0 0 85 0 85 -85 0
-85 0 0 -65 0 -65 -165 0 -165 0 0 -85 0 -85 -105 0 c-98 0 -105 -1 -105 -20
0 -18 -7 -20 -65 -20 l-65 0 0 85 0 85 -80 0 -80 0 0 85 0 85 -85 0 -85 0 0
-65 0 -65 -85 0 c-78 0 -85 -2 -85 -20 0 -19 -7 -20 -185 -20 l-185 0 0 -85 0
-85 -165 0 -165 0 0 85 0 85 -85 0 -85 0 0 85 0 85 -85 0 -85 0 0 250 0 250
-80 0 -80 0 0 435 0 435 80 0 80 0 0 335 0 335 -60 0 -60 0 0 165 0 165 80 0
80 0 0 85 0 85 65 0 65 0 0 80 0 80 335 0 335 0 0 -80z m6450 -540 l0 -40 -80
0 c-73 0 -80 -2 -80 -20 0 -20 -7 -20 -605 -20 l-605 0 0 60 0 60 685 0 685 0
0 -40z m-5870 -2775 l0 -145 -125 0 -125 0 0 145 0 145 125 0 125 0 0 -145z
m1000 0 l0 -145 -375 0 -375 0 0 145 0 145 375 0 375 0 0 -145z m500 0 l0
-145 -105 0 -105 0 0 145 0 145 105 0 105 0 0 -145z m1000 0 l0 -145 -355 0
-355 0 0 145 0 145 355 0 355 0 0 -145z m1370 20 l0 -125 250 0 c243 0 250 -1
250 -20 0 -20 -7 -20 -850 -20 l-850 0 0 145 0 145 600 0 600 0 0 -125z"/>
<path d="M5540 4585 l0 -85 85 0 85 0 0 85 0 85 -85 0 -85 0 0 -85z"/>
<path d="M790 2460 c0 -33 3 -40 20 -40 15 0 20 -7 20 -25 0 -20 5 -25 25 -25
23 0 25 -4 25 -40 0 -33 3 -40 20 -40 13 0 20 -7 20 -20 0 -13 7 -20 20 -20
17 0 20 -7 20 -40 0 -33 3 -40 20 -40 15 0 20 -7 20 -25 0 -18 5 -25 20 -25
13 0 20 -7 20 -20 0 -13 7 -20 20 -20 17 0 20 -7 20 -40 l0 -40 3875 0 3875 0
0 40 c0 36 3 40 25 40 18 0 25 5 25 20 0 13 7 20 20 20 15 0 20 7 20 25 0 18
5 25 20 25 17 0 20 7 20 40 0 33 3 40 20 40 13 0 20 7 20 20 0 13 7 20 20 20
17 0 20 7 20 40 0 33 3 40 20 40 15 0 20 7 20 25 0 20 5 25 25 25 23 0 25 4
25 40 l0 40 -4170 0 -4170 0 0 -40z"/>
<path d="M1460 1600 c0 -13 7 -20 20 -20 13 0 20 -7 20 -20 0 -13 7 -20 20
-20 13 0 20 -7 20 -20 0 -13 7 -20 20 -20 13 0 20 -7 20 -20 0 -15 7 -20 25
-20 18 0 25 -5 25 -20 0 -13 7 -20 20 -20 15 0 20 -7 20 -25 0 -18 5 -25 20
-25 13 0 20 -7 20 -20 0 -13 7 -20 20 -20 13 0 20 -7 20 -20 0 -17 7 -20 40
-20 33 0 40 -3 40 -20 0 -15 7 -20 25 -20 18 0 25 -5 25 -20 0 -13 7 -20 20
-20 13 0 20 -7 20 -20 0 -20 7 -20 3040 -20 3033 0 3040 0 3040 20 0 13 7 20
20 20 13 0 20 7 20 20 0 13 7 20 20 20 13 0 20 7 20 20 0 17 7 20 45 20 38 0
45 3 45 20 0 13 7 20 20 20 13 0 20 7 20 20 0 13 7 20 20 20 15 0 20 7 20 25
0 18 5 25 20 25 13 0 20 7 20 20 0 13 7 20 20 20 13 0 20 7 20 20 0 15 7 20
25 20 18 0 25 5 25 20 0 13 7 20 20 20 13 0 20 7 20 20 0 13 7 20 20 20 13 0
20 7 20 20 0 20 -7 20 -3500 20 -3493 0 -3500 0 -3500 -20z"/>
<path d="M2580 730 c0 -17 7 -20 45 -20 38 0 45 -3 45 -20 0 -17 7 -20 40 -20
36 0 40 -2 40 -25 0 -22 4 -25 40 -25 33 0 40 -3 40 -20 0 -17 7 -20 45 -20
38 0 45 -3 45 -20 0 -18 7 -20 60 -20 53 0 60 -2 60 -20 0 -17 7 -20 45 -20
38 0 45 -3 45 -20 0 -18 7 -20 60 -20 53 0 60 -2 60 -20 0 -18 7 -20 65 -20
63 0 65 -1 65 -25 0 -24 3 -25 60 -25 53 0 60 -2 60 -20 0 -18 7 -20 65 -20
58 0 65 -2 65 -20 0 -18 7 -20 80 -20 73 0 80 -2 80 -20 0 -18 7 -20 85 -20
78 0 85 -2 85 -20 0 -19 7 -20 125 -20 118 0 125 -1 125 -20 0 -19 7 -20 165
-20 l165 0 0 -25 0 -25 420 0 420 0 0 25 0 25 165 0 c158 0 165 1 165 20 0 19
7 20 125 20 118 0 125 1 125 20 0 18 7 20 85 20 78 0 85 2 85 20 0 18 7 20 80
20 73 0 80 2 80 20 0 18 7 20 65 20 58 0 65 2 65 20 0 18 7 20 60 20 57 0 60
1 60 25 0 24 2 25 65 25 58 0 65 2 65 20 0 18 7 20 60 20 53 0 60 2 60 20 0
17 7 20 45 20 38 0 45 3 45 20 0 18 7 20 60 20 53 0 60 2 60 20 0 17 7 20 40
20 33 0 40 3 40 20 0 17 7 20 45 20 41 0 45 2 45 25 0 23 4 25 40 25 33 0 40
3 40 20 0 17 7 20 40 20 33 0 40 3 40 20 0 20 -7 20 -2375 20 -2368 0 -2375 0
-2375 -20z"/>
</g>
</svg>
